<?xml version="1.0" standalone="no"?><!DOCTYPE svg PUBLIC "-//W3C//DTD SVG 1.1//EN" "http://www.w3.org/Graphics/SVG/1.1/DTD/svg11.dtd" [<!ENTITY nbsp " ">]><svg data-noselect="" viewBox="190.749999999995 64.9481301548 400 425.8574793831" width="400" ref="svg_canvas" height="425.8574793831" preserveAspectRatio="none" version="1.1" xmlns="http://www.w3.org/2000/svg" style="background: #ffffff;">
    <def></def>
    <g id="shape_rmWsq4SQbJ" ref="shape_rmWsq4SQbJ" key="shape_rmWsq4SQbJ" transform="translate(320,151) rotate(45,70.75,70.75) scale(1,1)" style="cursor:move;display:inline;opacity:1;" filter="">
            <g style="display:inline"><rect fill="rgba(0,0,0,0)" width="161.5" height="161.5" x="-10" y="-10"></rect><svg id="图层_1" data-name="图层 1" xmlns="http://www.w3.org/2000/svg" viewBox="0 0 141.5 141.5" width="141.5" height="141.5" class="style-removed" preserveAspectRatio="none" data-parent="shape_rmWsq4SQbJ"><title>未标题-4</title><rect width="141.5" height="141.5" rx="55" id="radius-elem" x="0" y="0" fill="#0021c2" ry="55" stroke-width="0"></rect></svg></g>
        </g><g id="shape_R81EjJnIXy" ref="shape_R81EjJnIXy" key="shape_R81EjJnIXy" transform="translate(181.65,-332.3518698452) rotate(0,290.77108716697,572.3) scale(1,1)" style="cursor:move;display:inline;opacity:1;" filter="">
            <g style="display:inline"><svg xmlns="http://www.w3.org/2000/svg" version="1.1" xmlns:xlink="http://www.w3.org/1999/xlink" width="736.4" height="1144.6" viewBox="0 0 736.4 1144.6" preserveAspectRatio="none" data-parent="shape_R81EjJnIXy"><rect fill="rgba(0,0,0,0)" width="100" height="190" x="159.1" y="477.29999999999995"></rect><g data-width="99.049072265625" transform="translate(159.5754638671875, 0)"><path d="M1.79-19.50L1.79-19.50Q0.70-26.10 2.87-34.65L2.87-34.65L3.03-35.19L32.39-35.19L32.16-34.34Q30.38-26.96 32.16-23.77L32.16-23.77Q33.79-20.74 39.77-20.74L39.77-20.74Q43.04-20.74 45.56-22.06Q48.09-23.38 49.95-25.52Q51.82-27.66 53.06-30.41Q54.30-33.17 55.08-35.97L55.08-35.97L64.32-73.41Q64.63-75.20 64.52-76.60Q64.40-78.00 62.93-78.00L62.93-78.00Q62.23-78.00 60.67-77.41Q59.12-76.83 57.45-76.02Q55.78-75.20 54.22-74.42Q52.67-73.65 51.97-73.18L51.97-73.18L102.70-110.39L87.32-48.17L21.60 0Q17.79-0.78 14.45-2.45Q11.11-4.12 8.51-6.60Q5.90-9.09 4.16-12.35Q2.41-15.61 1.79-19.50ZM117.54-126.55L117.54-126.55L68.60-90.81L74.03-112.80L85.69-112.80Q88.48-113.11 92.48-114.08Q96.49-115.05 100.45-117.15L100.45-117.15Q103.01-118.63 105.61-120.06Q108.22-121.50 110.55-122.78Q112.88-124.06 114.70-125.03Q116.53-126.01 117.54-126.55ZM4.89 17.63L4.89 17.63L98.43-50.81Q95.09-47.93 92.21-44.98L92.21-44.98Q90.43-43.27 89.34-41.99Q88.25-40.71 87.16-39.31Q86.08-37.91 85.14-36.47Q84.21-35.04 83.67-33.64L83.67-33.64Q81.49-26.34 77.22-20.28Q72.95-14.22 67.20-9.71Q61.45-5.20 54.54-2.45Q47.62 0.31 40.16 1.09L40.16 1.09Q38.14 1.55 35.58 2.52Q33.02 3.50 30.18 4.74Q27.35 5.98 24.35 7.42Q21.36 8.86 18.57 10.25L18.57 10.25Q11.96 13.67 4.89 17.63Z" transform="translate(0 611.3) " fill="rgb(255, 255, 255)" stroke="rgb(255, 255, 255)" stroke-width="0.265" data-glyph-w="99.049072265625" data-glyph-h="159.1" data-glyph-ascender="119.32499999999999" data-glyph-descender="-39.775"></path></g></svg></g>
        </g><g id="shape_UoM8jFWrlj" ref="shape_UoM8jFWrlj" key="shape_UoM8jFWrlj" transform="translate(186.129999999995,34.32560953789999) rotate(0,348.23655298752,323.48) scale(1,1)" style="cursor:move;display:inline;opacity:1;" filter="">
            <g style="display:inline"><svg xmlns="http://www.w3.org/2000/svg" version="1.1" xmlns:xlink="http://www.w3.org/1999/xlink" width="586.48" height="646.96" viewBox="0 0 586.48 646.96" preserveAspectRatio="none" data-parent="shape_UoM8jFWrlj"><rect fill="rgba(0,0,0,0)" width="232" height="106" x="88.62" y="270.48"></rect><g data-width="231.56406" transform="translate(88.83797, 0)"><path d="M7.80-13.82L21.36-13.82L26.50-52.11L23.93-55.48L43.51-55.48L37.57-11.25Q36.87-8.68 35.09-7.00Q33.32-5.32 30.75-5.32L30.75-5.32L2.66-5.32L4.34-17.19L7.80-13.82Z" transform="translate(0 354.48) " fill="#000000" stroke="#000000" stroke-width="0.148" data-glyph-w="47.50032" data-glyph-h="115.206" data-glyph-ascender="88.62" data-glyph-descender="-26.586000000000002"></path><path d="M10.10-55.48L57.78-55.48Q59.02-55.48 60.08-55.03Q61.15-54.59 61.90-53.79Q62.65-52.99 62.92-51.93Q63.19-50.87 62.83-49.54L62.83-49.54L56.89-5.32L9.22-5.32Q7.98-5.32 6.91-5.76Q5.85-6.20 5.10-7.00Q4.34-7.80 4.08-8.91Q3.81-10.01 4.17-11.25L4.17-11.25L10.10-55.48ZM45.82-46.97L25.43-46.97L21.18-13.82L40.77-13.82L45.82-46.97Z" transform="translate(47.50032 354.48) " fill="#000000" stroke="#000000" stroke-width="0.148" data-glyph-w="66.99672" data-glyph-h="115.206" data-glyph-ascender="88.62" data-glyph-descender="-26.586000000000002"></path><path d="M8.24-55.48L56.72-55.48L55.92-46.97L27.83-46.97L26.14-35.98L52.46-35.98L51.67-27.47L24.37-27.47L22.69-13.82L52.46-13.82L51.67-5.32L3.99-5.32L10.81-52.11L8.24-55.48Z" transform="translate(114.49704 354.48) " fill="#000000" stroke="#000000" stroke-width="0.148" data-glyph-w="60.2616" data-glyph-h="115.206" data-glyph-ascender="88.62" data-glyph-descender="-26.586000000000002"></path><path d="M6.56-55.48L26.94-55.48L21.00-13.82L54.15-13.82L53.35-5.32L9.13-5.32Q6.56-5.32 5.27-7.00Q3.99-8.68 3.99-11.25L3.99-11.25L9.13-52.11L6.56-55.48Z" transform="translate(174.75864 354.48) " fill="#000000" stroke="#000000" stroke-width="0.148" data-glyph-w="56.805420000000005" data-glyph-h="115.206" data-glyph-ascender="88.62" data-glyph-descender="-26.586000000000002"></path></g></svg></g>
        </g>
  </svg>