<svg t="1689776007181" class="icon" viewBox="0 0 1024 1024" version="1.1" xmlns="http://www.w3.org/2000/svg" p-id="2204" width="200" height="200"><path d="M0 139.636364a46.545455 46.545455 0 0 1 46.545455-46.545455h354.897454a51.2 51.2 0 0 1 47.057455 31.034182L473.6 182.679273 977.454545 182.690909a46.545455 46.545455 0 0 1 46.545455 46.545455v546.909091a46.545455 46.545455 0 0 1-46.545455 46.545454H46.545455a46.545455 46.545455 0 0 1-46.545455-46.545454V139.636364z" fill="#FFA000" p-id="2205"></path><path d="M0 276.945455m46.545455 0l930.90909 0q46.545455 0 46.545455 46.545454l0 558.545455q0 46.545455-46.545455 46.545454l-930.90909 0q-46.545455 0-46.545455-46.545454l0-558.545455q0-46.545455 46.545455-46.545454Z" fill="#FFCA28" p-id="2206"></path></svg>